<?xml version="1.0" ?><svg id="Icon" viewBox="0 0 64 64" xmlns="http://www.w3.org/2000/svg" xmlns:xlink="http://www.w3.org/1999/xlink"><defs><style>.cls-1{fill:url(#linear-gradient);}.cls-2{fill:url(#linear-gradient-2);}.cls-3{fill:url(#linear-gradient-3);}.cls-4{fill:url(#linear-gradient-4);}.cls-5{fill:url(#linear-gradient-5);}</style><linearGradient gradientUnits="userSpaceOnUse" id="linear-gradient" x1="32" x2="32" y1="48.134" y2="65.076"><stop offset="0" stop-color="#bdaaa4"/><stop offset="1" stop-color="#8d6e63"/></linearGradient><linearGradient gradientUnits="userSpaceOnUse" id="linear-gradient-2" x1="32" x2="32" y1="18.906" y2="71.898"><stop offset="0" stop-color="#a1887f"/><stop offset="1" stop-color="#6d4d42"/></linearGradient><linearGradient gradientUnits="userSpaceOnUse" id="linear-gradient-3" x1="32" x2="32" y1="3.683" y2="31.805"><stop offset="0" stop-color="#faa629"/><stop offset="1" stop-color="#f47c20"/></linearGradient><linearGradient gradientUnits="userSpaceOnUse" id="linear-gradient-4" x1="24" x2="24" y1="22.307" y2="29.883"><stop offset="0" stop-color="#8d6e63"/><stop offset="1" stop-color="#5e4137"/></linearGradient><linearGradient id="linear-gradient-5" x1="40" x2="40" xlink:href="#linear-gradient-4" y1="22.307" y2="29.883"/></defs><path class="cls-1" d="M15,52.648V55.5a4,4,0,0,0,4,4H45a4,4,0,0,0,4-4V52.648Z"/><path class="cls-2" d="M49,19.064a2,2,0,0,0-2-2H17a2,2,0,0,0-2,2V52.648H49Z"/><path class="cls-3" d="M32,4.5a9.01,9.01,0,0,0-9,9V23.965a1,1,0,1,0,2,0V13.5a7,7,0,0,1,14,0V23.965a1,1,0,1,0,2,0V13.5A9.01,9.01,0,0,0,32,4.5Z"/><rect class="cls-4" height="4.099" rx="2.05" width="6.257" x="20.871" y="23.965"/><rect class="cls-5" height="4.099" rx="2.05" width="6.257" x="36.871" y="23.965"/></svg>